<?xml version="1.0" standalone="no"?>
<!DOCTYPE svg PUBLIC "-//W3C//DTD SVG 20010904//EN"
 "http://www.w3.org/TR/2001/REC-SVG-20010904/DTD/svg10.dtd">
<svg version="1.0" xmlns="http://www.w3.org/2000/svg"
 width="300.000000pt" height="300.000000pt" viewBox="0 0 300.000000 300.000000"
 preserveAspectRatio="xMidYMid meet">
<metadata>
Created by potrace 1.10, written by Peter Selinger 2001-2011
</metadata>
<g transform="translate(0.000000,300.000000) scale(0.100000,-0.100000)"
fill="#000000" stroke="none">
<path d="M1471 2566 c-13 -13 -63 -45 -112 -72 -93 -49 -108 -67 -96 -117 7
-26 -1 -41 -27 -51 -14 -5 -26 2 -46 25 -34 41 -60 42 -206 3 l-110 -28 -28
-106 c-44 -161 -44 -169 -2 -209 l35 -34 -26 -21 c-15 -11 -45 -23 -67 -26
-40 -5 -42 -7 -88 -95 -25 -49 -60 -101 -76 -115 l-30 -25 35 -40 c19 -22 50
-71 69 -110 42 -87 63 -106 108 -98 29 4 37 1 51 -21 17 -25 17 -26 -14 -55
-38 -36 -39 -62 -6 -156 14 -39 25 -93 25 -121 l0 -52 43 5 c30 3 66 -4 129
-26 47 -17 93 -31 101 -31 8 0 30 16 50 35 31 31 39 34 62 25 23 -9 25 -14 20
-44 -9 -46 6 -70 63 -102 26 -15 74 -44 108 -65 33 -22 65 -39 71 -39 6 0 34
16 63 35 28 19 78 49 110 66 66 35 75 51 66 113 -6 39 -5 42 23 52 27 11 31 9
53 -24 39 -59 45 -60 157 -23 71 24 112 32 139 29 l37 -5 1 56 c1 33 12 88 28
135 32 93 26 123 -30 150 -46 21 -65 10 -24 -15 30 -18 54 -59 41 -69 -3 -3
-7 -16 -9 -30 -2 -14 -10 -47 -19 -75 -9 -27 -17 -63 -17 -79 -1 -28 -4 -30
-76 -48 -41 -10 -95 -25 -119 -33 -45 -15 -89 -5 -75 17 5 8 1 9 -10 5 -10 -4
-15 -3 -11 3 3 5 -3 14 -14 19 -54 29 -101 -4 -101 -73 0 -39 -4 -46 -38 -70
-21 -14 -43 -26 -49 -26 -6 0 -16 -7 -23 -15 -7 -9 -19 -14 -27 -11 -8 3 -12
2 -9 -2 2 -4 -11 -17 -29 -29 -33 -22 -33 -22 -66 -2 -19 11 -47 26 -64 34
-64 33 -110 64 -107 74 1 6 -2 11 -8 11 -5 0 -10 11 -10 25 0 60 -51 104 -89
76 -72 -52 -89 -56 -146 -31 -42 19 -117 40 -139 40 -20 0 -24 7 -30 42 -10
68 -13 80 -32 130 -18 46 -18 47 6 95 13 26 25 56 27 65 4 24 -53 68 -87 68
-36 0 -49 13 -80 81 -14 30 -34 64 -45 77 -20 24 -40 76 -25 67 4 -3 13 9 20
25 7 17 17 30 22 30 5 0 6 5 3 10 -3 6 -2 10 3 10 6 0 17 17 25 38 20 50 47
79 83 88 16 4 31 10 34 13 3 3 14 11 25 17 29 16 28 68 -1 93 -13 12 -24 28
-24 37 0 20 20 104 30 129 5 11 12 34 15 51 8 42 28 57 100 78 33 9 74 21 91
26 39 13 64 13 64 0 0 -5 6 -10 14 -10 7 0 20 -7 27 -16 19 -23 51 -33 72 -22
20 10 40 53 39 82 -2 32 18 56 61 77 55 26 88 45 96 56 3 4 18 14 33 22 24 12
30 11 60 -7 18 -12 59 -35 92 -53 61 -35 89 -66 85 -96 -4 -35 13 -73 41 -87
27 -13 31 -12 67 18 21 17 40 34 41 38 7 15 54 8 130 -18 42 -15 85 -26 94
-26 23 1 38 -28 43 -79 3 -21 9 -47 14 -57 5 -10 13 -41 16 -68 7 -48 5 -52
-29 -86 -39 -39 -44 -62 -20 -96 13 -19 24 -22 75 -22 52 0 61 -3 68 -22 5
-13 29 -53 53 -89 60 -89 62 -95 37 -138 -87 -148 -124 -183 -176 -167 -20 6
-61 -13 -64 -29 -1 -5 -4 -16 -7 -23 -2 -7 -2 -15 1 -18 10 -10 27 7 27 27 0
20 15 23 60 10 41 -12 79 7 102 53 11 22 43 74 70 114 l50 74 -39 56 c-22 32
-54 83 -72 115 -39 69 -67 84 -124 67 -22 -6 -40 -10 -41 -8 -1 2 -7 16 -14
31 -10 24 -9 29 6 34 9 3 29 15 45 25 32 23 36 70 12 143 -9 25 -21 75 -28
112 l-12 68 -50 6 c-28 3 -85 15 -128 28 -67 19 -84 21 -108 11 -16 -7 -29
-15 -29 -19 0 -3 -8 -16 -18 -29 -16 -21 -21 -22 -45 -11 -24 11 -27 16 -21
46 12 65 2 77 -126 152 -65 39 -121 71 -123 71 -2 0 -14 -11 -26 -24z"/>
<path d="M1409 2280 c-69 -11 -172 -49 -230 -86 -114 -71 -217 -215 -254 -354
-18 -66 -19 -208 -4 -282 78 -369 500 -567 845 -397 147 72 267 219 309 379
19 70 19 229 1 298 -36 132 -123 261 -231 338 -118 83 -293 125 -436 104z
m181 -20 c139 -27 215 -65 307 -157 40 -40 73 -79 73 -87 0 -8 6 -19 13 -23
18 -12 56 -94 72 -158 20 -76 23 -127 13 -205 -4 -36 -8 -73 -9 -82 0 -21 -63
-149 -93 -193 -47 -67 -185 -182 -200 -167 -4 4 -13 0 -19 -8 -28 -36 -145
-64 -263 -63 -87 1 -215 36 -266 73 -15 11 -31 20 -36 20 -13 0 -132 117 -159
157 -13 18 -23 42 -23 54 0 12 -3 19 -7 15 -12 -12 -53 105 -61 178 -10 83 -1
200 18 236 7 14 12 25 10 25 -2 0 2 17 9 38 7 20 17 37 22 37 6 0 7 4 4 10 -9
14 72 115 136 172 120 106 306 158 459 128z"/>
<path d="M1435 2168 c-28 -16 -42 -36 -70 -95 -22 -49 -29 -73 -40 -145 -6
-44 -36 -98 -61 -115 -20 -12 -41 -59 -44 -95 0 -4 -7 -26 -15 -49 -20 -56
-19 -92 5 -131 11 -18 20 -46 20 -61 0 -16 12 -44 26 -62 l26 -34 -28 -37
c-18 -23 -29 -50 -30 -76 -1 -22 0 -37 4 -34 3 3 17 -2 31 -11 22 -14 53 -17
222 -15 198 2 234 7 258 36 17 21 9 77 -17 114 -20 27 -20 28 -1 62 10 19 18
53 19 75 0 22 4 46 9 54 12 18 41 7 41 -17 0 -22 44 -84 53 -75 4 3 7 2 7 -3
0 -5 13 -10 29 -11 41 -3 70 32 77 93 5 41 1 60 -24 117 -19 40 -37 67 -46 67
-9 0 -30 9 -48 19 -17 11 -35 18 -38 16 -4 -2 -26 16 -50 40 -24 25 -49 45
-55 45 -26 0 -74 66 -83 115 -12 64 -16 79 -22 85 -3 3 -14 23 -25 45 -38 76
-88 108 -130 83z m76 -55 c9 -18 23 -40 30 -49 13 -16 21 -42 50 -161 9 -35
19 -47 62 -74 29 -18 59 -41 68 -52 9 -11 51 -38 93 -61 76 -40 78 -42 103
-105 l26 -65 -19 -35 c-38 -72 -94 -38 -104 63 -5 49 -7 51 -36 54 -28 3 -33
-1 -43 -29 -6 -18 -20 -38 -31 -46 -18 -13 -19 -16 -5 -37 19 -28 10 -58 -29
-99 l-27 -29 24 -18 c13 -10 32 -37 42 -60 19 -41 19 -43 0 -56 -17 -13 -226
-22 -399 -17 -79 2 -85 47 -15 115 41 40 49 58 24 58 -8 0 -26 10 -40 22 -19
17 -25 31 -25 64 0 33 -5 46 -20 54 -24 13 -26 55 -5 107 8 19 15 50 15 67 0
23 9 41 35 66 19 19 35 41 35 49 0 8 3 11 7 8 8 -9 34 64 27 75 -3 5 -1 14 4
21 5 7 13 33 16 59 4 25 14 52 21 58 8 7 15 23 15 36 0 27 36 56 65 52 11 -2
27 -18 36 -35z"/>
<path d="M1457 2113 c-4 -3 -7 -13 -7 -21 0 -7 -8 -26 -19 -40 -20 -29 -56
-185 -47 -201 7 -10 0 -18 -63 -71 -35 -29 -41 -39 -36 -62 4 -17 -1 -41 -14
-67 -23 -43 -27 -71 -11 -71 17 0 38 -54 33 -85 -4 -30 5 -40 60 -61 34 -13 9
-81 -46 -124 -15 -12 -27 -26 -27 -31 0 -5 86 -9 205 -9 235 0 237 1 159 77
-47 47 -52 66 -16 71 11 2 24 13 28 25 4 12 14 28 23 34 15 12 14 14 -1 27
-24 18 -22 39 6 67 13 14 28 40 34 59 8 34 10 35 53 32 56 -4 79 -25 79 -73 0
-53 19 -92 37 -78 17 15 17 41 -4 98 -15 44 -21 49 -96 86 -43 22 -85 48 -91
57 -16 22 -79 65 -102 70 -13 2 -21 17 -27 48 -4 25 -12 54 -17 65 -11 27 -24
77 -22 91 1 6 -7 19 -18 29 -11 10 -20 24 -20 30 0 16 -25 37 -33 28z m43
-128 c12 -33 27 -81 32 -106 11 -51 48 -99 77 -99 10 0 29 -12 43 -27 14 -16
36 -36 49 -45 21 -16 21 -19 7 -35 -9 -10 -19 -28 -22 -40 -4 -13 -12 -23 -17
-23 -5 0 -9 -6 -9 -13 0 -7 -6 -19 -12 -25 -7 -7 -13 -29 -14 -50 -1 -20 -3
-42 -3 -47 -1 -6 -12 -22 -26 -37 -31 -33 -33 -78 -5 -96 11 -7 20 -19 20 -27
0 -13 -22 -15 -137 -15 -118 1 -135 3 -120 14 10 8 17 18 16 22 -1 5 3 22 9
37 18 42 15 50 -23 87 -20 19 -35 44 -35 56 0 13 -4 26 -10 29 -5 3 -10 15
-10 26 0 10 -5 19 -11 19 -11 0 -10 11 5 65 18 68 29 90 58 119 46 44 57 68
53 110 -1 20 1 36 5 36 5 0 8 8 7 19 -2 26 24 101 35 101 5 0 6 6 2 13 -5 8
-4 9 3 2 6 -5 21 -37 33 -70z"/>
<path d="M643 753 c-21 -8 -15 -48 12 -73 30 -28 32 -50 4 -50 -13 0 -23 10
-30 30 -9 26 -29 42 -29 24 0 -17 33 -73 46 -78 49 -19 73 51 29 80 -30 20
-32 40 -5 47 11 3 20 10 20 16 0 11 -25 13 -47 4z"/>
<path d="M737 754 c-17 -17 -6 -30 23 -26 41 6 38 -11 -5 -31 -28 -14 -35 -22
-35 -46 0 -36 12 -44 62 -45 l38 -1 0 60 c0 33 -4 66 -8 72 -10 15 -64 28 -75
17z m63 -75 c0 -23 -22 -49 -40 -49 -24 0 -26 17 -3 42 18 20 43 24 43 7z"/>
<path d="M847 698 c5 -73 9 -88 21 -88 5 0 7 20 4 45 -4 37 -1 46 14 52 10 4
19 2 22 -5 5 -17 19 -15 26 3 15 39 -25 61 -50 28 -12 -17 -13 -16 -14 5 0 12
-6 22 -14 22 -11 0 -13 -13 -9 -62z"/>
<path d="M967 753 c-17 -16 -5 -29 23 -25 34 5 41 -13 10 -23 -53 -17 -69 -78
-24 -95 16 -7 32 -7 43 0 10 5 21 6 25 3 3 -3 6 24 6 60 0 55 -3 68 -19 77
-22 11 -54 13 -64 3z m63 -77 c0 -28 -12 -46 -30 -46 -29 0 -33 17 -10 40 23
23 40 26 40 6z"/>
<path d="M1075 750 c-3 -5 -3 -15 1 -22 4 -7 7 -30 5 -53 -1 -24 4 -48 13 -60
14 -19 15 -16 16 37 0 48 3 59 21 69 37 19 45 -3 22 -66 l-21 -55 24 0 c27 0
42 19 24 30 -11 7 -11 14 0 39 24 58 -12 111 -51 75 -18 -16 -19 -16 -19 -1 0
18 -25 23 -35 7z"/>
<path d="M1217 746 c-5 -12 0 -16 23 -16 37 0 39 -17 5 -30 -14 -5 -31 -21
-37 -36 -11 -23 -10 -29 12 -46 14 -11 30 -16 39 -12 9 4 23 6 32 6 13 0 14
10 11 61 -5 71 -7 74 -48 83 -23 4 -33 2 -37 -10z m61 -83 c-2 -20 -9 -29 -25
-31 -28 -4 -31 24 -5 44 26 20 34 17 30 -13z"/>
<path d="M1327 745 c-4 -8 -2 -17 3 -20 6 -4 10 -26 10 -50 0 -74 14 -87 20
-17 6 70 25 85 25 18 0 -49 18 -76 50 -76 24 0 42 26 22 33 -9 3 -9 10 1 31
25 55 10 88 -40 91 -18 2 -39 -2 -45 -7 -9 -7 -13 -7 -13 1 0 16 -27 13 -33
-4z m116 -46 c-1 -13 -7 -37 -14 -54 l-13 -30 -4 44 c-2 24 -1 50 2 58 9 23
31 9 29 -18z"/>
<path d="M1577 753 c-18 -18 -6 -32 23 -26 42 8 39 -13 -5 -31 -29 -12 -35
-20 -35 -45 0 -36 29 -56 63 -45 12 5 25 7 30 6 4 -1 7 27 7 63 0 53 -3 66
-19 75 -22 11 -54 13 -64 3z m63 -77 c0 -28 -12 -46 -31 -46 -24 0 -25 35 -1
49 24 14 32 13 32 -3z"/>
<path d="M1684 749 c-3 -6 -1 -15 6 -19 9 -6 9 -13 1 -28 -31 -58 2 -118 47
-86 21 14 22 14 22 -15 0 -38 -16 -48 -41 -25 -10 9 -22 14 -27 10 -12 -13 36
-45 58 -39 30 8 34 20 35 103 0 41 4 83 9 93 7 16 5 18 -15 15 -22 -3 -24 -7
-21 -48 3 -36 -1 -50 -18 -65 -16 -14 -23 -16 -32 -7 -10 10 -9 23 5 61 9 27
17 51 17 55 0 11 -39 6 -46 -5z"/>
<path d="M1817 746 c-3 -8 -1 -16 5 -18 7 -3 6 -17 -3 -46 -11 -37 -10 -44 6
-62 16 -18 20 -18 46 -4 28 14 29 14 29 -10 0 -13 -7 -29 -15 -36 -13 -10 -19
-10 -33 4 -21 18 -32 21 -32 6 0 -5 11 -17 25 -26 23 -15 27 -15 50 0 23 15
25 22 25 92 0 41 5 84 10 95 9 16 7 19 -14 19 -24 0 -43 -25 -26 -35 17 -10
11 -54 -10 -75 -50 -50 -58 -7 -15 93 6 13 2 17 -18 17 -14 0 -27 -6 -30 -14z"/>
<path d="M1967 754 c-16 -16 -6 -31 18 -26 35 6 32 -14 -5 -33 -23 -12 -30
-22 -30 -45 0 -34 30 -56 58 -42 9 5 23 7 30 5 14 -5 18 103 4 124 -10 15 -64
28 -75 17z m51 -91 c-2 -20 -9 -29 -25 -31 -27 -4 -30 14 -6 40 23 26 35 22
31 -9z"/>
<path d="M2066 745 c-3 -8 -1 -15 4 -15 6 0 10 -37 10 -84 0 -47 5 -88 10 -91
6 -4 10 7 10 25 0 27 3 30 24 24 47 -11 71 58 41 116 -18 35 -22 36 -47 13
-17 -15 -18 -15 -18 5 0 25 -25 30 -34 7z m94 -81 c0 -26 -24 -48 -45 -40 -22
8 -20 72 3 85 20 12 42 -11 42 -45z"/>
<path d="M2197 746 c-3 -7 -1 -18 3 -22 5 -5 10 -45 12 -88 2 -52 7 -81 15
-84 9 -2 11 5 7 28 -6 29 -5 31 19 25 20 -5 29 -1 42 19 20 30 15 90 -9 115
-14 13 -18 13 -36 -4 -20 -18 -20 -18 -20 3 0 24 -25 30 -33 8z m93 -82 c0
-27 -22 -46 -44 -38 -22 9 -22 70 2 83 20 12 42 -11 42 -45z"/>
<path d="M2340 741 c0 -14 6 -17 25 -13 34 6 32 -14 -4 -32 -16 -9 -31 -25
-34 -36 -7 -28 28 -64 51 -55 9 4 23 8 30 8 8 0 12 20 12 63 0 52 -3 65 -19
74 -32 16 -61 12 -61 -9z m58 -78 c-4 -35 -48 -48 -48 -14 0 18 23 40 43 41 5
0 7 -12 5 -27z"/>
</g>
</svg>
